<svg xmlns="http://www.w3.org/2000/svg" xmlns:svgjs="http://svgjs.com/svgjs" xmlns:xlink="http://www.w3.org/1999/xlink" width="50" height="50"><svg xmlns="http://www.w3.org/2000/svg" width="288" height="288" fill="none" viewBox="0 0 24 24"><path fill="#b1b3b9" fill-rule="evenodd" d="M1.5 2a.5.5 0 0 1 .5-.5h20a.5.5 0 0 1 .5.5v5a.5.5 0 0 1-.5.5H7.5v9H14a.5.5 0 0 1 .5.5v5a.5.5 0 0 1-.5.5H2a.5.5 0 0 1-.5-.5V2Zm1 .5v19h11v-4H7a.5.5 0 0 1-.5-.5V7a.5.5 0 0 1 .5-.5h14.5v-4h-19Z" class="color000 svgShape" clip-rule="evenodd"/><path fill="#b1b3b9" fill-rule="evenodd" d="M9 9.5a.5.5 0 0 1 .5-.5H22a.5.5 0 0 1 .5.5V22a.5.5 0 0 1-.5.5h-5.5a.5.5 0 0 1-.5-.5v-7H9.5a.5.5 0 0 1-.5-.5v-5Zm1 .5v4h6.5a.5.5 0 0 1 .5.5v7h4.5V10H10Z" class="color000 svgShape" clip-rule="evenodd"/></svg></svg>